<?xml version="1.0" standalone="no"?><svg xmlns:xlink="http://www.w3.org/1999/xlink" xmlns="http://www.w3.org/2000/svg" viewBox="0 0 1000 416.66666666666674" preserveAspectRatio="xMaxYMax slice"><g transform="scale(0.9065854366115463)"><rect x="0" y="0" width="1103.04" height="459.6" fill="#ffffff"/><rect x="0" y="0" width="91.92" height="91.92" fill="#ffcde7"/><polygon points="0,0 91.92,91.92 0,91.92" fill="#ff9ccf"/><rect x="91.92" y="0" width="91.92" height="91.92" fill="#ffffff"/><rect x="91.92" y="0" width="45.96" height="45.96" fill="#ffa4d3"/><polygon points="137.88,0 137.88,45.96 91.92,45.96" fill="#f281c8"/><rect x="137.88" y="0" width="45.96" height="45.96" fill="#ffe1f0"/><polygon points="137.88,0 183.84,45.96 137.88,45.96" fill="#eb3dab"/><rect x="91.92" y="45.96" width="45.96" height="45.96" fill="#ffd1e9"/><polygon points="91.92,45.96 137.88,45.96 137.88,91.92" fill="#ffa1d1"/><rect x="137.88" y="45.96" width="45.96" height="45.96" fill="#ed4eb2"/><polygon points="137.88,45.96 183.84,45.96 183.84,91.92" fill="#f388cb"/><rect x="183.84" y="0" width="91.92" height="91.92" fill="#ffb1d9"/><polygon points="275.76,0 275.76,91.92 183.84,91.92" fill="#ffa3d3"/><rect x="275.76" y="0" width="91.92" height="91.92" fill="#ffffff"/><rect x="275.76" y="0" width="45.96" height="45.96" fill="#ee5fba"/><polygon points="275.76,0 321.71999999999997,0 275.76,45.96" fill="#f59dd4"/><rect x="321.72" y="0" width="45.96" height="45.96" fill="#fbdbef"/><polygon points="321.72,0 367.68,45.96 321.72,45.96" fill="#ec4bb1"/><rect x="275.76" y="45.96" width="45.96" height="45.96" fill="#ffe5f3"/><polygon points="275.76,45.96 321.71999999999997,45.96 275.76,91.92" fill="#f8bfe3"/><rect x="321.72" y="45.96" width="45.96" height="45.96" fill="#fff3f9"/><polygon points="321.72,45.96 367.68,45.96 367.68,91.92" fill="#ffcfe8"/><rect x="367.68" y="0" width="91.92" height="91.92" fill="#fbd4ec"/><polygon points="459.6,0 459.6,91.92 367.68,91.92" fill="#f8bde2"/><rect x="459.6" y="0" width="91.92" height="91.92" fill="#ffffff"/><rect x="459.6" y="0" width="45.96" height="45.96" fill="#f282c9"/><polygon points="459.6,0 505.56,0 459.6,45.96" fill="#ffbcdf"/><rect x="505.56" y="0" width="45.96" height="45.96" fill="#ffc5e3"/><polygon points="505.56,0 551.52,45.96 505.56,45.96" fill="#ef60ba"/><rect x="459.6" y="45.96" width="45.96" height="45.96" fill="#ffb1d9"/><polygon points="459.6,45.96 505.56,91.92 459.6,91.92" fill="#ffa3d3"/><rect x="505.56" y="45.96" width="45.96" height="45.96" fill="#ffc7e4"/><polygon points="505.56,45.96 551.52,45.96 551.52,91.92" fill="#fde8f5"/><rect x="551.52" y="0" width="91.92" height="91.92" fill="#ffffff"/><rect x="551.52" y="0" width="45.96" height="45.96" fill="#ffaad6"/><polygon points="551.52,0 597.48,0 597.48,45.96" fill="#ed4eb2"/><rect x="597.48" y="0" width="45.96" height="45.96" fill="#ffd3ea"/><polygon points="597.48,0 643.44,0 643.44,45.96" fill="#ef62bb"/><rect x="551.52" y="45.96" width="45.96" height="45.96" fill="#ffafd9"/><polygon points="597.48,45.96 597.48,91.92 551.52,91.92" fill="#ffaad6"/><rect x="597.48" y="45.96" width="45.96" height="45.96" fill="#ffcae5"/><polygon points="597.48,45.96 643.44,45.96 643.44,91.92" fill="#f072c2"/><rect x="643.44" y="0" width="91.92" height="91.92" fill="#ff93cb"/><polygon points="735.36,0 735.36,91.92 643.44,91.92" fill="#f6a8d9"/><rect x="735.36" y="0" width="91.92" height="91.92" fill="#ffffff"/><rect x="735.36" y="0" width="45.96" height="45.96" fill="#f498d2"/><polygon points="735.36,0 781.32,0 735.36,45.96" fill="#ea37a8"/><rect x="781.32" y="0" width="45.96" height="45.96" fill="#ff90c9"/><polygon points="781.32,0 827.2800000000001,0 781.32,45.96" fill="#f38ece"/><rect x="735.36" y="45.96" width="45.96" height="45.96" fill="#ea38a9"/><polygon points="735.36,45.96 781.32,91.92 735.36,91.92" fill="#f389cc"/><rect x="781.32" y="45.96" width="45.96" height="45.96" fill="#f8bce2"/><polygon points="781.32,45.96 827.2800000000001,45.96 781.32,91.92" fill="#f38ece"/><rect x="827.28" y="0" width="91.92" height="91.92" fill="#ffc9e5"/><polygon points="827.28,0 919.1999999999999,0 919.1999999999999,91.92" fill="#ec49b0"/><rect x="919.2" y="0" width="91.92" height="91.92" fill="#ffffff"/><rect x="919.2" y="0" width="45.96" height="45.96" fill="#ffcbe6"/><polygon points="965.1600000000001,0 965.1600000000001,45.96 919.2,45.96" fill="#ffe5f2"/><rect x="965.16" y="0" width="45.96" height="45.96" fill="#ff9ed0"/><polygon points="965.16,0 1011.12,45.96 965.16,45.96" fill="#f7b3de"/><rect x="919.2" y="45.96" width="45.96" height="45.96" fill="#ef61bb"/><polygon points="919.2,45.96 965.1600000000001,45.96 919.2,91.92" fill="#fce5f4"/><rect x="965.16" y="45.96" width="45.96" height="45.96" fill="#f280c8"/><polygon points="965.16,45.96 1011.12,45.96 965.16,91.92" fill="#fdecf7"/><rect x="1011.12" y="0" width="91.92" height="91.92" fill="#fad1eb"/><polygon points="1011.12,0 1103.04,0 1011.12,91.92" fill="#fff0f8"/><rect x="0" y="91.92" width="91.92" height="91.92" fill="#fffcfe"/><polygon points="91.92,91.92 91.92,183.84 0,183.84" fill="#f491cf"/><rect x="91.92" y="91.92" width="91.92" height="91.92" fill="#ff9ed0"/><polygon points="91.92,91.92 183.84,91.92 183.84,183.84" fill="#ffa0d1"/><rect x="183.84" y="91.92" width="91.92" height="91.92" fill="#ffffff"/><rect x="183.84" y="91.92" width="45.96" height="45.96" fill="#ffcce6"/><polygon points="229.8,91.92 229.8,137.88 183.84,137.88" fill="#ffb2da"/><rect x="229.8" y="91.92" width="45.96" height="45.96" fill="#facde9"/><polygon points="275.76,91.92 275.76,137.88 229.8,137.88" fill="#eb3aaa"/><rect x="183.84" y="137.88" width="45.96" height="45.96" fill="#f38acc"/><polygon points="183.84,137.88 229.8,137.88 229.8,183.84" fill="#fff5fa"/><rect x="229.8" y="137.88" width="45.96" height="45.96" fill="#ff8bc7"/><polygon points="229.8,137.88 275.76,137.88 275.76,183.84" fill="#ffaad6"/><rect x="275.76" y="91.92" width="91.92" height="91.92" fill="#ffffff"/><rect x="275.76" y="91.92" width="45.96" height="45.96" fill="#ffdbee"/><polygon points="275.76,91.92 321.71999999999997,91.92 321.71999999999997,137.88" fill="#f59ed5"/><rect x="321.72" y="91.92" width="45.96" height="45.96" fill="#eb3aa9"/><polygon points="321.72,91.92 367.68,137.88 321.72,137.88" fill="#fdebf6"/><rect x="275.76" y="137.88" width="45.96" height="45.96" fill="#ef63bb"/><polygon points="321.71999999999997,137.88 321.71999999999997,183.84 275.76,183.84" fill="#ed51b3"/><rect x="321.72" y="137.88" width="45.96" height="45.96" fill="#f495d1"/><polygon points="367.68,137.88 367.68,183.84 321.72,183.84" fill="#fde9f6"/><rect x="367.68" y="91.92" width="91.92" height="91.92" fill="#ffffff"/><rect x="367.68" y="91.92" width="45.96" height="45.96" fill="#ee5eb9"/><polygon points="367.68,91.92 413.64,137.88 367.68,137.88" fill="#ff99cd"/><rect x="413.64" y="91.92" width="45.96" height="45.96" fill="#eb3eab"/><polygon points="459.59999999999997,91.92 459.59999999999997,137.88 413.64,137.88" fill="#f6a9da"/><rect x="367.68" y="137.88" width="45.96" height="45.96" fill="#ff95cc"/><polygon points="367.68,137.88 413.64,137.88 367.68,183.84" fill="#ffe1f0"/><rect x="413.64" y="137.88" width="45.96" height="45.96" fill="#ffdbee"/><polygon points="459.59999999999997,137.88 459.59999999999997,183.84 413.64,183.84" fill="#ffb0d9"/><rect x="459.6" y="91.92" width="91.92" height="91.92" fill="#ffffff"/><rect x="459.6" y="91.92" width="45.96" height="45.96" fill="#f281c8"/><polygon points="459.6,91.92 505.56,91.92 459.6,137.88" fill="#fff9fc"/><rect x="505.56" y="91.92" width="45.96" height="45.96" fill="#ed54b5"/><polygon points="505.56,91.92 551.52,91.92 551.52,137.88" fill="#eb41ac"/><rect x="459.6" y="137.88" width="45.96" height="45.96" fill="#f38acc"/><polygon points="459.6,137.88 505.56,137.88 459.6,183.84" fill="#f6acdb"/><rect x="505.56" y="137.88" width="45.96" height="45.96" fill="#ffb2da"/><polygon points="551.52,137.88 551.52,183.84 505.56,183.84" fill="#ffaad6"/><rect x="551.52" y="91.92" width="91.92" height="91.92" fill="#ffd3ea"/><polygon points="643.4399999999999,91.92 643.4399999999999,183.84 551.52,183.84" fill="#ffb6dc"/><rect x="643.44" y="91.92" width="91.92" height="91.92" fill="#ffffff"/><rect x="643.44" y="91.92" width="45.96" height="45.96" fill="#fef9fc"/><polygon points="643.44,91.92 689.4000000000001,91.92 689.4000000000001,137.88" fill="#fdf0f9"/><rect x="689.4" y="91.92" width="45.96" height="45.96" fill="#fde8f5"/><polygon points="735.36,91.92 735.36,137.88 689.4,137.88" fill="#fde7f5"/><rect x="643.44" y="137.88" width="45.96" height="45.96" fill="#ff93cb"/><polygon points="643.44,137.88 689.4000000000001,137.88 689.4000000000001,183.84" fill="#ffd2e9"/><rect x="689.4" y="137.88" width="45.96" height="45.96" fill="#ffa7d5"/><polygon points="689.4,137.88 735.36,137.88 735.36,183.84" fill="#ee56b6"/><rect x="735.36" y="91.92" width="91.92" height="91.92" fill="#ff91ca"/><polygon points="735.36,91.92 827.28,183.84 735.36,183.84" fill="#f8b7e0"/><rect x="827.28" y="91.92" width="91.92" height="91.92" fill="#ffffff"/><rect x="827.28" y="91.92" width="45.96" height="45.96" fill="#f282c9"/><polygon points="827.28,91.92 873.24,91.92 873.24,137.88" fill="#fffeff"/><rect x="873.24" y="91.92" width="45.96" height="45.96" fill="#ffe5f3"/><polygon points="873.24,91.92 919.2,91.92 919.2,137.88" fill="#fce3f3"/><rect x="827.28" y="137.88" width="45.96" height="45.96" fill="#f7afdc"/><polygon points="827.28,137.88 873.24,137.88 827.28,183.84" fill="#ffb0d9"/><rect x="873.24" y="137.88" width="45.96" height="45.96" fill="#ff8dc8"/><polygon points="873.24,137.88 919.2,183.84 873.24,183.84" fill="#ff87c5"/><rect x="919.2" y="91.92" width="91.92" height="91.92" fill="#ffffff"/><rect x="919.2" y="91.92" width="45.96" height="45.96" fill="#ffe3f1"/><polygon points="919.2,91.92 965.1600000000001,91.92 919.2,137.88" fill="#ffbedf"/><rect x="965.16" y="91.92" width="45.96" height="45.96" fill="#ff90c9"/><polygon points="965.16,91.92 1011.12,137.88 965.16,137.88" fill="#fff7fb"/><rect x="919.2" y="137.88" width="45.96" height="45.96" fill="#fef2f9"/><polygon points="919.2,137.88 965.1600000000001,183.84 919.2,183.84" fill="#f496d1"/><rect x="965.16" y="137.88" width="45.96" height="45.96" fill="#fff6fb"/><polygon points="965.16,137.88 1011.12,137.88 1011.12,183.84" fill="#f59ad3"/><rect x="1011.12" y="91.92" width="91.92" height="91.92" fill="#f59dd4"/><polygon points="1103.04,91.92 1103.04,183.84 1011.12,183.84" fill="#ffe6f3"/><rect x="0" y="183.84" width="91.92" height="91.92" fill="#ff98cd"/><polygon points="0,183.84 91.92,183.84 91.92,275.76" fill="#ffa8d5"/><rect x="91.92" y="183.84" width="91.92" height="91.92" fill="#ffffff"/><rect x="91.92" y="183.84" width="45.96" height="45.96" fill="#fff1f8"/><polygon points="91.92,183.84 137.88,183.84 137.88,229.8" fill="#fef5fb"/><rect x="137.88" y="183.84" width="45.96" height="45.96" fill="#fffafd"/><polygon points="137.88,183.84 183.84,229.8 137.88,229.8" fill="#ffcae5"/><rect x="91.92" y="229.8" width="45.96" height="45.96" fill="#f06dc0"/><polygon points="137.88,229.8 137.88,275.76 91.92,275.76" fill="#ec44ae"/><rect x="137.88" y="229.8" width="45.96" height="45.96" fill="#ff8bc7"/><polygon points="137.88,229.8 183.84,275.76 137.88,275.76" fill="#f071c1"/><rect x="183.84" y="183.84" width="91.92" height="91.92" fill="#fff6fb"/><polygon points="183.84,183.84 275.76,183.84 275.76,275.76" fill="#ffcee7"/><rect x="275.76" y="183.84" width="91.92" height="91.92" fill="#ffdaed"/><polygon points="275.76,183.84 367.68,183.84 275.76,275.76" fill="#ffc2e2"/><rect x="367.68" y="183.84" width="91.92" height="91.92" fill="#ffffff"/><rect x="367.68" y="183.84" width="45.96" height="45.96" fill="#f59ad3"/><polygon points="367.68,183.84 413.64,183.84 413.64,229.8" fill="#f070c1"/><rect x="413.64" y="183.84" width="45.96" height="45.96" fill="#ffd6eb"/><polygon points="413.64,183.84 459.59999999999997,229.8 413.64,229.8" fill="#f491cf"/><rect x="367.68" y="229.8" width="45.96" height="45.96" fill="#f38acc"/><polygon points="413.64,229.8 413.64,275.76 367.68,275.76" fill="#ed55b5"/><rect x="413.64" y="229.8" width="45.96" height="45.96" fill="#eb3caa"/><polygon points="413.64,229.8 459.59999999999997,275.76 413.64,275.76" fill="#ee5ab8"/><rect x="459.6" y="183.84" width="91.92" height="91.92" fill="#ffffff"/><rect x="459.6" y="183.84" width="45.96" height="45.96" fill="#ea38a9"/><polygon points="505.56,183.84 505.56,229.8 459.6,229.8" fill="#fffafc"/><rect x="505.56" y="183.84" width="45.96" height="45.96" fill="#f6a4d8"/><polygon points="551.52,183.84 551.52,229.8 505.56,229.8" fill="#f8bae1"/><rect x="459.6" y="229.8" width="45.96" height="45.96" fill="#ffdff0"/><polygon points="459.6,229.8 505.56,229.8 459.6,275.76" fill="#eb3dab"/><rect x="505.56" y="229.8" width="45.96" height="45.96" fill="#f8bce2"/><polygon points="505.56,229.8 551.52,229.8 505.56,275.76" fill="#f8b7e0"/><rect x="551.52" y="183.84" width="91.92" height="91.92" fill="#ffffff"/><rect x="551.52" y="183.84" width="45.96" height="45.96" fill="#ff94cb"/><polygon points="551.52,183.84 597.48,183.84 551.52,229.8" fill="#f179c5"/><rect x="597.48" y="183.84" width="45.96" height="45.96" fill="#fef4fa"/><polygon points="597.48,183.84 643.44,183.84 597.48,229.8" fill="#ffd7ec"/><rect x="551.52" y="229.8" width="45.96" height="45.96" fill="#f8b9e1"/><polygon points="597.48,229.8 597.48,275.76 551.52,275.76" fill="#fff3f9"/><rect x="597.48" y="229.8" width="45.96" height="45.96" fill="#facae8"/><polygon points="597.48,229.8 643.44,229.8 597.48,275.76" fill="#fdebf7"/><rect x="643.44" y="183.84" width="91.92" height="91.92" fill="#f070c1"/><polygon points="643.44,183.84 735.36,183.84 643.44,275.76" fill="#ffb4db"/><rect x="735.36" y="183.84" width="91.92" height="91.92" fill="#ef68be"/><polygon points="735.36,183.84 827.28,183.84 735.36,275.76" fill="#fdeff8"/><rect x="827.28" y="183.84" width="91.92" height="91.92" fill="#ff8ac6"/><polygon points="827.28,183.84 919.1999999999999,183.84 919.1999999999999,275.76" fill="#f9c8e7"/><rect x="919.2" y="183.84" width="91.92" height="91.92" fill="#ffffff"/><rect x="919.2" y="183.84" width="45.96" height="45.96" fill="#ffacd7"/><polygon points="919.2,183.84 965.1600000000001,183.84 965.1600000000001,229.8" fill="#ffc3e2"/><rect x="965.16" y="183.84" width="45.96" height="45.96" fill="#f387cb"/><polygon points="965.16,183.84 1011.12,229.8 965.16,229.8" fill="#ffa5d3"/><rect x="919.2" y="229.8" width="45.96" height="45.96" fill="#f17cc6"/><polygon points="919.2,229.8 965.1600000000001,229.8 919.2,275.76" fill="#ffeff7"/><rect x="965.16" y="229.8" width="45.96" height="45.96" fill="#ff9ccf"/><polygon points="965.16,229.8 1011.12,229.8 965.16,275.76" fill="#ffaed8"/><rect x="1011.12" y="183.84" width="91.92" height="91.92" fill="#ffffff"/><rect x="1011.12" y="183.84" width="45.96" height="45.96" fill="#ff99cd"/><polygon points="1057.08,183.84 1057.08,229.8 1011.12,229.8" fill="#ffa9d5"/><rect x="1057.08" y="183.84" width="45.96" height="45.96" fill="#ffa0d1"/><polygon points="1057.08,183.84 1103.04,229.8 1057.08,229.8" fill="#ff9ccf"/><rect x="1011.12" y="229.8" width="45.96" height="45.96" fill="#ffd4ea"/><polygon points="1011.12,229.8 1057.08,229.8 1011.12,275.76" fill="#f388cb"/><rect x="1057.08" y="229.8" width="45.96" height="45.96" fill="#f59ed5"/><polygon points="1103.04,229.8 1103.04,275.76 1057.08,275.76" fill="#fce2f2"/><rect x="0" y="275.76" width="91.92" height="91.92" fill="#f06cbf"/><polygon points="0,275.76 91.92,275.76 91.92,367.68" fill="#f8c0e4"/><rect x="91.92" y="275.76" width="91.92" height="91.92" fill="#ffe7f3"/><polygon points="183.84,275.76 183.84,367.68 91.92,367.68" fill="#f498d2"/><rect x="183.84" y="275.76" width="91.92" height="91.92" fill="#f9c9e7"/><polygon points="275.76,275.76 275.76,367.68 183.84,367.68" fill="#ffd6eb"/><rect x="275.76" y="275.76" width="91.92" height="91.92" fill="#ffd7eb"/><polygon points="275.76,275.76 367.68,275.76 275.76,367.68" fill="#f8c0e4"/><rect x="367.68" y="275.76" width="91.92" height="91.92" fill="#fff7fb"/><polygon points="367.68,275.76 459.6,275.76 367.68,367.68" fill="#eb3dab"/><rect x="459.6" y="275.76" width="91.92" height="91.92" fill="#ffffff"/><rect x="459.6" y="275.76" width="45.96" height="45.96" fill="#fbd6ed"/><polygon points="505.56,275.76 505.56,321.71999999999997 459.6,321.71999999999997" fill="#ffdcee"/><rect x="505.56" y="275.76" width="45.96" height="45.96" fill="#ed56b6"/><polygon points="551.52,275.76 551.52,321.71999999999997 505.56,321.71999999999997" fill="#ed52b4"/><rect x="459.6" y="321.72" width="45.96" height="45.96" fill="#ffa1d1"/><polygon points="459.6,321.72 505.56,321.72 505.56,367.68" fill="#f073c2"/><rect x="505.56" y="321.72" width="45.96" height="45.96" fill="#ffa5d4"/><polygon points="505.56,321.72 551.52,367.68 505.56,367.68" fill="#ffbee0"/><rect x="551.52" y="275.76" width="91.92" height="91.92" fill="#ffffff"/><rect x="551.52" y="275.76" width="45.96" height="45.96" fill="#fbdcf0"/><polygon points="597.48,275.76 597.48,321.71999999999997 551.52,321.71999999999997" fill="#ff9fd1"/><rect x="597.48" y="275.76" width="45.96" height="45.96" fill="#f7b4de"/><polygon points="643.44,275.76 643.44,321.71999999999997 597.48,321.71999999999997" fill="#fdebf6"/><rect x="551.52" y="321.72" width="45.96" height="45.96" fill="#ffd6eb"/><polygon points="551.52,321.72 597.48,321.72 597.48,367.68" fill="#ffc5e3"/><rect x="597.48" y="321.72" width="45.96" height="45.96" fill="#fef6fb"/><polygon points="597.48,321.72 643.44,321.72 597.48,367.68" fill="#fef5fb"/><rect x="643.44" y="275.76" width="91.92" height="91.92" fill="#ffffff"/><rect x="643.44" y="275.76" width="45.96" height="45.96" fill="#eb3dab"/><polygon points="689.4000000000001,275.76 689.4000000000001,321.71999999999997 643.44,321.71999999999997" fill="#ff8ec9"/><rect x="689.4" y="275.76" width="45.96" height="45.96" fill="#ffebf6"/><polygon points="689.4,275.76 735.36,275.76 689.4,321.71999999999997" fill="#ffffff"/><rect x="643.44" y="321.72" width="45.96" height="45.96" fill="#ea35a8"/><polygon points="689.4000000000001,321.72 689.4000000000001,367.68 643.44,367.68" fill="#ed4db2"/><rect x="689.4" y="321.72" width="45.96" height="45.96" fill="#fbd8ee"/><polygon points="689.4,321.72 735.36,367.68 689.4,367.68" fill="#f38ece"/><rect x="735.36" y="275.76" width="91.92" height="91.92" fill="#ffdaed"/><polygon points="735.36,275.76 827.28,275.76 735.36,367.68" fill="#ffc2e1"/><rect x="827.28" y="275.76" width="91.92" height="91.92" fill="#eb3cab"/><polygon points="827.28,275.76 919.1999999999999,367.68 827.28,367.68" fill="#ff86c5"/><rect x="919.2" y="275.76" width="91.92" height="91.92" fill="#ffffff"/><rect x="919.2" y="275.76" width="45.96" height="45.96" fill="#fef5fb"/><polygon points="919.2,275.76 965.1600000000001,275.76 965.1600000000001,321.71999999999997" fill="#ffa3d3"/><rect x="965.16" y="275.76" width="45.96" height="45.96" fill="#ffa6d4"/><polygon points="965.16,275.76 1011.12,275.76 1011.12,321.71999999999997" fill="#fff0f8"/><rect x="919.2" y="321.72" width="45.96" height="45.96" fill="#ffd0e8"/><polygon points="919.2,321.72 965.1600000000001,367.68 919.2,367.68" fill="#fff2f9"/><rect x="965.16" y="321.72" width="45.96" height="45.96" fill="#f8c0e4"/><polygon points="965.16,321.72 1011.12,367.68 965.16,367.68" fill="#ff97cd"/><rect x="1011.12" y="275.76" width="91.92" height="91.92" fill="#ffffff"/><rect x="1011.12" y="275.76" width="45.96" height="45.96" fill="#ffacd7"/><polygon points="1011.12,275.76 1057.08,275.76 1057.08,321.71999999999997" fill="#fff7fb"/><rect x="1057.08" y="275.76" width="45.96" height="45.96" fill="#f8b7e0"/><polygon points="1103.04,275.76 1103.04,321.71999999999997 1057.08,321.71999999999997" fill="#f072c2"/><rect x="1011.12" y="321.72" width="45.96" height="45.96" fill="#ffb3da"/><polygon points="1011.12,321.72 1057.08,321.72 1057.08,367.68" fill="#fff1f8"/><rect x="1057.08" y="321.72" width="45.96" height="45.96" fill="#ffbee0"/><polygon points="1103.04,321.72 1103.04,367.68 1057.08,367.68" fill="#f6aada"/><rect x="0" y="367.68" width="91.92" height="91.92" fill="#ffffff"/><rect x="0" y="367.68" width="45.96" height="45.96" fill="#eb42ad"/><polygon points="0,367.68 45.96,413.64 0,413.64" fill="#ffe2f1"/><rect x="45.96" y="367.68" width="45.96" height="45.96" fill="#eb40ac"/><polygon points="45.96,367.68 91.92,413.64 45.96,413.64" fill="#ffb6dc"/><rect x="0" y="413.64" width="45.96" height="45.96" fill="#ffd7ec"/><polygon points="0,413.64 45.96,459.59999999999997 0,459.59999999999997" fill="#f177c4"/><rect x="45.96" y="413.64" width="45.96" height="45.96" fill="#f072c2"/><polygon points="45.96,413.64 91.92,413.64 45.96,459.59999999999997" fill="#ffe2f1"/><rect x="91.92" y="367.68" width="91.92" height="91.92" fill="#ffffff"/><rect x="91.92" y="367.68" width="45.96" height="45.96" fill="#ffb2da"/><polygon points="91.92,367.68 137.88,367.68 91.92,413.64" fill="#ffeef7"/><rect x="137.88" y="367.68" width="45.96" height="45.96" fill="#ffc4e2"/><polygon points="183.84,367.68 183.84,413.64 137.88,413.64" fill="#ee5cb8"/><rect x="91.92" y="413.64" width="45.96" height="45.96" fill="#ff95cc"/><polygon points="137.88,413.64 137.88,459.59999999999997 91.92,459.59999999999997" fill="#facce9"/><rect x="137.88" y="413.64" width="45.96" height="45.96" fill="#ffb1d9"/><polygon points="137.88,413.64 183.84,413.64 137.88,459.59999999999997" fill="#ffeff7"/><rect x="183.84" y="367.68" width="91.92" height="91.92" fill="#ffffff"/><rect x="183.84" y="367.68" width="45.96" height="45.96" fill="#ff89c6"/><polygon points="183.84,367.68 229.8,413.64 183.84,413.64" fill="#ffa2d2"/><rect x="229.8" y="367.68" width="45.96" height="45.96" fill="#ffc1e1"/><polygon points="229.8,367.68 275.76,367.68 275.76,413.64" fill="#eb3eab"/><rect x="183.84" y="413.64" width="45.96" height="45.96" fill="#ff88c6"/><polygon points="183.84,413.64 229.8,413.64 229.8,459.59999999999997" fill="#ffc7e4"/><rect x="229.8" y="413.64" width="45.96" height="45.96" fill="#f17bc6"/><polygon points="275.76,413.64 275.76,459.59999999999997 229.8,459.59999999999997" fill="#fce2f3"/><rect x="275.76" y="367.68" width="91.92" height="91.92" fill="#ffb0d9"/><polygon points="275.76,367.68 367.68,367.68 367.68,459.6" fill="#fff6fb"/><rect x="367.68" y="367.68" width="91.92" height="91.92" fill="#ffffff"/><rect x="367.68" y="367.68" width="45.96" height="45.96" fill="#f7b0dd"/><polygon points="367.68,367.68 413.64,367.68 367.68,413.64" fill="#ed4fb3"/><rect x="413.64" y="367.68" width="45.96" height="45.96" fill="#ffc9e5"/><polygon points="413.64,367.68 459.59999999999997,413.64 413.64,413.64" fill="#ec46af"/><rect x="367.68" y="413.64" width="45.96" height="45.96" fill="#ffcfe8"/><polygon points="367.68,413.64 413.64,413.64 367.68,459.59999999999997" fill="#ffa4d3"/><rect x="413.64" y="413.64" width="45.96" height="45.96" fill="#f173c2"/><polygon points="413.64,413.64 459.59999999999997,413.64 459.59999999999997,459.59999999999997" fill="#fce2f2"/><rect x="459.6" y="367.68" width="91.92" height="91.92" fill="#ffffff"/><rect x="459.6" y="367.68" width="45.96" height="45.96" fill="#ed52b4"/><polygon points="459.6,367.68 505.56,413.64 459.6,413.64" fill="#ed53b4"/><rect x="505.56" y="367.68" width="45.96" height="45.96" fill="#f27fc7"/><polygon points="551.52,367.68 551.52,413.64 505.56,413.64" fill="#ffcbe6"/><rect x="459.6" y="413.64" width="45.96" height="45.96" fill="#ff9bcf"/><polygon points="459.6,413.64 505.56,459.59999999999997 459.6,459.59999999999997" fill="#f9c4e5"/><rect x="505.56" y="413.64" width="45.96" height="45.96" fill="#faceea"/><polygon points="551.52,413.64 551.52,459.59999999999997 505.56,459.59999999999997" fill="#ffb6dc"/><rect x="551.52" y="367.68" width="91.92" height="91.92" fill="#ffedf6"/><polygon points="551.52,367.68 643.4399999999999,367.68 551.52,459.6" fill="#ff99ce"/><rect x="643.44" y="367.68" width="91.92" height="91.92" fill="#ffffff"/><rect x="643.44" y="367.68" width="45.96" height="45.96" fill="#ffa7d4"/><polygon points="643.44,367.68 689.4000000000001,367.68 643.44,413.64" fill="#ff92ca"/><rect x="689.4" y="367.68" width="45.96" height="45.96" fill="#ef63bb"/><polygon points="735.36,367.68 735.36,413.64 689.4,413.64" fill="#ffaad6"/><rect x="643.44" y="413.64" width="45.96" height="45.96" fill="#ffa1d2"/><polygon points="643.44,413.64 689.4000000000001,413.64 689.4000000000001,459.59999999999997" fill="#ffd2e9"/><rect x="689.4" y="413.64" width="45.96" height="45.96" fill="#fdedf7"/><polygon points="689.4,413.64 735.36,459.59999999999997 689.4,459.59999999999997" fill="#fce0f1"/><rect x="735.36" y="367.68" width="91.92" height="91.92" fill="#ffa8d5"/><polygon points="735.36,367.68 827.28,367.68 735.36,459.6" fill="#ec4bb1"/><rect x="827.28" y="367.68" width="91.92" height="91.92" fill="#ffffff"/><rect x="827.28" y="367.68" width="45.96" height="45.96" fill="#ffe0f0"/><polygon points="827.28,367.68 873.24,367.68 873.24,413.64" fill="#ff88c5"/><rect x="873.24" y="367.68" width="45.96" height="45.96" fill="#f17cc6"/><polygon points="873.24,367.68 919.2,367.68 919.2,413.64" fill="#ef66bd"/><rect x="827.28" y="413.64" width="45.96" height="45.96" fill="#fff4fa"/><polygon points="873.24,413.64 873.24,459.59999999999997 827.28,459.59999999999997" fill="#ff88c5"/><rect x="873.24" y="413.64" width="45.96" height="45.96" fill="#fce1f2"/><polygon points="873.24,413.64 919.2,459.59999999999997 873.24,459.59999999999997" fill="#ffd6eb"/><rect x="919.2" y="367.68" width="91.92" height="91.92" fill="#f7b4df"/><polygon points="919.2,367.68 1011.12,367.68 1011.12,459.6" fill="#ffedf6"/><rect x="1011.12" y="367.68" width="91.92" height="91.92" fill="#f17ac5"/><polygon points="1011.12,367.68 1103.04,367.68 1011.12,459.6" fill="#f281c8"/></g></svg>